<svg viewBox="0 0 400 300" xmlns="http://www.w3.org/2000/svg"><path d="m290.77 150a90.33 90.33 0 0 1 -7.09 35.22c-.14.33-.28.66-.43 1a90.53 90.53 0 0 1 -22.82 31.52l-.74.66a90.8 90.8 0 1 1 -59.69-159.17 92 92 0 0 1 16.46 1.49 90.79 90.79 0 0 1 74.31 89.28z" fill="#68e1fd"/><path d="m200 241.77a91.78 91.78 0 0 1 -23.21-180.58 92.84 92.84 0 0 1 39.85-1.45 91.83 91.83 0 0 1 68 125.87c-.14.34-.29.68-.44 1a92 92 0 0 1 -23.06 31.84l-.5.45-.25.22a91.73 91.73 0 0 1 -60.39 22.65zm0-181.54a89.69 89.69 0 0 0 -89.77 89.77 88.89 88.89 0 0 0 7.65 36.3 89.78 89.78 0 0 0 141.12 31.33l.25-.22.48-.43a90.05 90.05 0 0 0 22.57-31.17c.16-.34.29-.66.43-1a89.84 89.84 0 0 0 -66.45-123.11 91.53 91.53 0 0 0 -16.28-1.47z" fill="#093f68"/><path d="m151.34 138.86c-.87 2.86-4.81 6.93-9 13.39s-2.05 18.21-2.05 18.21l-5.29 5.22 22.39 22.38c4-3.82 12.35-9.8 18.19-13.5 6.61-4.19 26.15-24.44 28.58-27.09 2.73-3 1-7.61-2.76-7.37-2.88.19-6.63 3.4-8.26 4.92 2.28-2.23 8.6-8.55 10.27-11.59 2.05-3.73-.19-5.78-3.35-7.27-1-.45-2.26 0-3.63.89a18.54 18.54 0 0 0 2.38-2.82c1.49-2.48.62-6.09-3.23-7.2-2-.6-4.2.83-5.8 2.3 3.5-4.24 3.18-6.17.46-8.89-3.23-3.23-4-1.74-11.19 5.47l-17.52 17.52s2.74-10.44 2.19-13.72-3.3-4.3-7.16-1.94-4.35 8.23-5.22 11.09z" fill="#e28362"/><g fill="#093f68"><path d="m157.42 199.06a1 1 0 0 1 -.71-.29l-22.38-22.39a1 1 0 0 1 0-1.41l4.85-4.86c-.38-2.42-1.64-12.4 2.29-18.41 1.75-2.68 3.43-4.92 4.91-6.9 2-2.63 3.55-4.72 4-6.23.16-.54.32-1.23.49-2 .74-3.19 1.75-7.58 5.19-9.68 3-1.83 5-1.58 6.15-1a4.63 4.63 0 0 1 2.52 3.68c.37 2.24-.59 7.22-1.37 10.65l15-15 2-2c3.64-3.68 5.3-5.36 7.17-5.36 1.25 0 2.27.76 3.42 1.91 2.21 2.21 2.89 4.1 2 6.42a4.85 4.85 0 0 1 2.89-.08 6.18 6.18 0 0 1 4.25 3.63 5.77 5.77 0 0 1 -.44 5.05l-.16.24a2.84 2.84 0 0 1 1 .26c1.6.76 3.81 2 4.5 4.14a5.64 5.64 0 0 1 -.69 4.52 35.2 35.2 0 0 1 -4.26 5.43 5.56 5.56 0 0 1 1.3-.23 4.63 4.63 0 0 1 4.66 2.65 5.74 5.74 0 0 1 -1.09 6.35c-1.65 1.85-21.91 22.85-28.77 27.25-5.71 3.62-14 9.54-18 13.39a1 1 0 0 1 -.72.27zm-21-23.39 21 21a155.58 155.58 0 0 1 17.62-13c6.41-4.05 25.48-23.75 28.38-26.92a3.74 3.74 0 0 0 .75-4.13 2.66 2.66 0 0 0 -2.71-1.56c-1.79.12-4.65 1.86-7.63 4.65a1 1 0 0 1 -1.39-1.44c2-1.92 8.47-8.4 10.1-11.36a3.72 3.72 0 0 0 .54-2.94c-.34-1-1.47-2-3.45-2.95-.5-.23-1.47.07-2.66.83a1 1 0 0 1 -1.26-1.54 17.85 17.85 0 0 0 2.25-2.63 3.75 3.75 0 0 0 .29-3.29 4.26 4.26 0 0 0 -2.95-2.44c-1.62-.48-3.53.86-4.84 2.07a1 1 0 0 1 -1.45-1.37c3.32-4 2.75-5.32.52-7.54-.93-.93-1.53-1.33-2-1.33-1 0-2.81 1.79-5.74 4.76-.61.62-1.28 1.3-2 2l-17.52 17.52a1 1 0 0 1 -1.67-1c.74-2.84 2.58-10.78 2.17-13.29a2.8 2.8 0 0 0 -1.38-2.2c-1-.46-2.53-.13-4.27.94-2.73 1.67-3.63 5.58-4.29 8.43-.18.77-.35 1.5-.53 2.1-.56 1.85-2.14 3.95-4.32 6.86-1.46 2-3.12 4.16-4.84 6.79-3.95 6-1.93 17.36-1.9 17.47a1 1 0 0 1 -.28.89z"/><path d="m169.63 150.51a1 1 0 0 1 -.71-.3 1 1 0 0 1 0-1.41l20.18-20.18a1 1 0 1 1 1.42 1.42l-20.18 20.17a1 1 0 0 1 -.71.3z"/><path d="m176.82 157.69a1 1 0 0 1 -.71-.29 1 1 0 0 1 0-1.41l19.64-19.65a1 1 0 0 1 1.42 0 1 1 0 0 1 0 1.41l-19.65 19.65a1 1 0 0 1 -.7.29z"/><path d="m183.6 165.6a1 1 0 0 1 -.71-.3 1 1 0 0 1 0-1.41l9.58-9.57a1 1 0 1 1 1.41 1.41l-9.57 9.57a1 1 0 0 1 -.71.3z"/></g><path d="m159.39 200-18.69 18.72a90.94 90.94 0 0 1 -23.74-32l14.55-14.55 25.91 25.91z" fill="#ffbc0e"/><path d="m140.7 219.72a1 1 0 0 1 -.66-.24 92.53 92.53 0 0 1 -24-32.37 1 1 0 0 1 .21-1.11l14.55-14.55a1 1 0 0 1 1.41 0l27.87 27.88a1 1 0 0 1 0 1.41l-18.68 18.69a1 1 0 0 1 -.7.29zm-22.54-32.79a90.42 90.42 0 0 0 22.49 30.42l17.35-17.35-26.46-26.45z" fill="#093f68"/><path d="m211.34 183.51c2.86.87 6.93 4.82 13.39 9s18.21 2.06 18.21 2.06l5.21 5.21 22.39-22.38c-3.82-4-9.8-12.35-13.5-18.19-4.19-6.62-24.44-26.15-27.09-28.58-3-2.73-7.61-1-7.37 2.76.19 2.88 3.4 6.62 4.92 8.25-2.23-2.27-8.55-8.59-11.59-10.26-3.73-2-5.78.18-7.27 3.35-.45.95 0 2.26.89 3.63a18.72 18.72 0 0 0 -2.82-2.39c-2.48-1.49-6.09-.62-7.21 3.23-.59 2 .84 4.21 2.31 5.81-4.24-3.51-6.17-3.18-8.89-.46-3.23 3.23-1.74 4 5.47 11.18l17.52 17.52s-10.44-2.73-13.72-2.19-4.3 3.31-1.94 7.16 8.23 4.42 11.09 5.29z" fill="#ffc9b0"/><path d="m248.16 200.82a1 1 0 0 1 -.71-.29l-4.86-4.85c-2.42.38-12.41 1.63-18.41-2.29-2.68-1.76-4.92-3.43-6.9-4.92-2.63-2-4.72-3.54-6.23-4-.54-.16-1.23-.32-2-.49-3.2-.74-7.58-1.76-9.68-5.19-1.83-3-1.58-5-1.05-6.16a4.62 4.62 0 0 1 3.68-2.51c2.24-.37 7.22.59 10.65 1.36l-15-15-2-2c-3.68-3.63-5.36-5.29-5.36-7.16 0-1.25.76-2.28 1.91-3.43 2.21-2.21 4.1-2.9 6.41-2a5 5 0 0 1 -.08-2.88 6.25 6.25 0 0 1 3.64-4.26 5.78 5.78 0 0 1 5 .45c.08 0 .16.1.24.15a2.85 2.85 0 0 1 .26-1c.76-1.6 2-3.81 4.14-4.51a5.65 5.65 0 0 1 4.52.7 35 35 0 0 1 5.43 4.25 5.48 5.48 0 0 1 -.23-1.29 4.64 4.64 0 0 1 2.69-4.65 5.74 5.74 0 0 1 6.35 1.08c2.09 1.93 22.85 21.84 27.25 28.79 3.62 5.7 9.54 14 13.39 18a1 1 0 0 1 0 1.39l-22.39 22.39a1 1 0 0 1 -.66.32zm-5.22-7.21a1 1 0 0 1 .7.29l4.52 4.51 21-21a153.14 153.14 0 0 1 -13-17.62c-4-6.39-23.76-25.48-26.93-28.38a3.72 3.72 0 0 0 -4.13-.75 2.67 2.67 0 0 0 -1.56 2.71c.12 1.79 1.86 4.65 4.65 7.63a1 1 0 1 1 -1.44 1.38c-1.92-1.95-8.4-8.46-11.36-10.09a3.72 3.72 0 0 0 -2.94-.54c-1.05.34-2 1.47-3 3.45-.23.49.07 1.46.83 2.66a1 1 0 0 1 -1.54 1.25 16.94 16.94 0 0 0 -2.63-2.24 3.75 3.75 0 0 0 -3.29-.29 4.26 4.26 0 0 0 -2.44 2.94c-.48 1.63.86 3.54 2.07 4.85a1 1 0 0 1 -1.37 1.45c-4-3.32-5.32-2.75-7.54-.53-.94.94-1.33 1.54-1.33 2 0 1 1.79 2.81 4.76 5.75.62.61 1.3 1.28 2 2l17.53 17.52a1 1 0 0 1 -1 1.67c-2.85-.74-10.78-2.58-13.3-2.17a2.78 2.78 0 0 0 -2.19 1.37c-.47 1-.14 2.54.93 4.28 1.67 2.72 5.58 3.63 8.43 4.29.77.18 1.5.34 2.1.53 1.85.56 4 2.14 6.85 4.32 2 1.46 4.16 3.12 6.8 4.84 6.05 3.95 17.36 1.92 17.47 1.9z" fill="#093f68"/><path d="m222 166.23a1 1 0 0 1 -.71-.3l-20.19-20.18a1 1 0 0 1 0-1.41 1 1 0 0 1 1.42 0l20.17 20.18a1 1 0 0 1 0 1.41 1 1 0 0 1 -.69.3z" fill="#093f68"/><path d="m229.17 159a1 1 0 0 1 -.71-.29l-19.64-19.61a1 1 0 1 1 1.41-1.41l19.65 19.64a1 1 0 0 1 0 1.42 1 1 0 0 1 -.71.25z" fill="#093f68"/><path d="m237.08 152.26a1 1 0 0 1 -.71-.3l-9.57-9.57a1 1 0 0 1 1.41-1.41l9.57 9.57a1 1 0 0 1 0 1.41 1 1 0 0 1 -.7.3z" fill="#093f68"/><path d="m283.25 186.2a90.53 90.53 0 0 1 -22.82 31.52l-.74.66-15.05-15 3.51-3.51 22.39-22.4 2-2z" fill="#f56132"/><path d="m259.69 219.38a1 1 0 0 1 -.71-.29l-15.05-15.09a1 1 0 0 1 0-1.41l3.51-3.51.09-.08 24.27-24.28a1 1 0 0 1 1.42 0l10.78 10.78a1 1 0 0 1 .21 1.1 92 92 0 0 1 -23.07 31.86l-.5.45-.25.22a1 1 0 0 1 -.7.25zm-13.64-16 13.68 13.62a90.09 90.09 0 0 0 22.3-30.55l-9.55-9.55-23.64 23.65-.09.08z" fill="#093f68"/><path d="m226 127.52c-1.41-2.64-1.5-8.31-3.08-15.86s-11.42-14.33-11.42-14.33v-7.33h-31.67c-.16 5.56-1.8 15.66-3.31 22.41-1.72 7.64-1.21 35.77-1.06 39.37.18 4 4.66 6.1 7.16 3.25 1.91-2.17 2.29-7.08 2.36-9.31 0 3.18 0 12.13.94 15.46 1.19 4.08 4.22 4 7.51 2.77 1-.36 1.58-1.62 1.94-3.19a19.29 19.29 0 0 0 .3 3.67c.71 2.81 3.87 4.74 7.38 2.81 1.86-1 2.39-3.56 2.48-5.73.52 5.47 2.12 6.61 6 6.61 4.57 0 4-1.58 4-11.78v-24.82s5.45 9.31 8.15 11.24 5.38.71 6.44-3.69-2.73-8.92-4.12-11.55z" fill="#ffc9b0"/><path d="m211.49 169.07c-3.13 0-5-.85-6-3.1a4.92 4.92 0 0 1 -2 2.1 6.25 6.25 0 0 1 -5.58.43 5.76 5.76 0 0 1 -3.26-3.88c0-.09 0-.18-.06-.29a3 3 0 0 1 -.87.51c-1.66.6-4.11 1.27-6.11.25a5.59 5.59 0 0 1 -2.7-3.68 35.52 35.52 0 0 1 -.83-6.85 7.35 7.35 0 0 1 -.75 1.08 4.65 4.65 0 0 1 -5.19 1.38 5.73 5.73 0 0 1 -3.73-5.25c-.18-4.33-.62-32.05 1.08-39.63 1.48-6.59 3.13-16.62 3.29-22.21a1 1 0 0 1 1-1h31.66a1 1 0 0 1 1 1v6.87c2 1.44 9.93 7.61 11.4 14.63.66 3.14 1.05 5.91 1.4 8.35.47 3.27.83 5.85 1.58 7.25.27.5.64 1.1 1 1.74 1.74 2.78 4.12 6.6 3.18 10.52-.82 3.4-2.41 4.65-3.61 5.09a4.66 4.66 0 0 1 -4.38-.82c-1.85-1.33-4.69-5.53-6.57-8.5v21.21 2.85c0 5.17 0 7.53-1.27 8.86-.79.91-2.05 1.09-3.68 1.09zm-6-8.61a1 1 0 0 1 1 .9c.49 5.19 1.82 5.71 5 5.71 1.32 0 2-.15 2.36-.48.73-.74.72-3.26.69-7.44 0-.87 0-1.82 0-2.86v-24.77a1 1 0 0 1 .74-1 1 1 0 0 1 1.12.46c1.49 2.54 5.8 9.46 7.87 10.94a2.8 2.8 0 0 0 2.52.58c1.05-.39 1.89-1.7 2.36-3.69.75-3.1-1.37-6.51-2.93-9-.41-.67-.81-1.3-1.1-1.86-.92-1.71-1.29-4.31-1.8-7.9-.34-2.42-.73-5.15-1.38-8.23-1.48-7.08-10.91-13.64-11-13.7a1 1 0 0 1 -.43-.83v-6.29h-29.7a154.11 154.11 0 0 1 -3.3 21.63c-1.65 7.39-1.22 34.82-1 39.1a3.76 3.76 0 0 0 2.39 3.46 2.69 2.69 0 0 0 3-.82c1.19-1.35 2-4.6 2.11-8.68a1 1 0 0 1 1-1 1 1 0 0 1 1 1c0 2.74 0 11.92.9 15.17a3.71 3.71 0 0 0 1.69 2.46c1 .5 2.46.39 4.52-.35.52-.19 1-1.09 1.3-2.47a1 1 0 0 1 2 .2 17.06 17.06 0 0 0 .27 3.45 3.8 3.8 0 0 0 2.12 2.53 4.26 4.26 0 0 0 3.81-.36c1.49-.81 1.89-3.11 2-4.89a1 1 0 0 1 1-1z" fill="#093f68"/><path d="m205.53 162.46a1 1 0 0 1 -1-1v-28.54a1 1 0 0 1 2 0v28.54a1 1 0 0 1 -1 1z" fill="#093f68"/><path d="m195.37 161.71a1 1 0 0 1 -1-1v-27.79a1 1 0 1 1 2 0v27.79a1 1 0 0 1 -1 1z" fill="#093f68"/><path d="m185 146.67a1 1 0 0 1 -1-1v-13.54a1 1 0 0 1 2 0v13.54a1 1 0 0 1 -1 1z" fill="#093f68"/><path d="m216.46 60.72v29.28h-39.46v-27.84a91 91 0 0 1 23-2.93 92 92 0 0 1 16.46 1.49z" fill="#70cc40"/><path d="m216.46 91h-39.46a1 1 0 0 1 -1-1v-27.84a1 1 0 0 1 .75-1 92.84 92.84 0 0 1 39.85-1.45 1 1 0 0 1 .82 1v29.29a1 1 0 0 1 -.96 1zm-38.46-2h37.42v-27.44a90.75 90.75 0 0 0 -37.42 1.38z" fill="#093f68"/></svg>